<svg width="253.96" height="31.281" viewBox="0 0 260.96 35.281" xmlns="http://www.w3.org/2000/svg">
  <g id="svgGroup" stroke-linecap="round" fill-rule="evenodd" font-size="9pt" stroke="#000" stroke-width="0.2mm"
    fill="black" style="stroke:#000;stroke-width:0.20mm;fill:black">
    <path
      d="M 37.56 31.28 L 37.16 31.28 Q 33.48 31.28 30.94 28.72 A 8.658 8.658 0 0 1 28.413 22.819 A 11.444 11.444 0 0 1 28.4 22.28 L 28.4 0.72 L 29.72 0.72 L 29.72 22.24 Q 29.72 25.64 31.92 27.88 A 7.303 7.303 0 0 0 37.234 30.119 A 9.287 9.287 0 0 0 37.36 30.12 Q 40.6 30.12 42.78 27.9 A 7.531 7.531 0 0 0 44.922 23.132 A 10.139 10.139 0 0 0 44.96 22.24 L 44.96 0.72 L 46.28 0.72 L 46.28 22.2 A 9.925 9.925 0 0 1 45.758 25.477 A 8.547 8.547 0 0 1 43.74 28.7 Q 41.2 31.28 37.56 31.28 Z M 208.08 31.28 L 207.68 31.28 Q 204 31.28 201.46 28.72 A 8.658 8.658 0 0 1 198.933 22.819 A 11.444 11.444 0 0 1 198.92 22.28 L 198.92 0.72 L 200.24 0.72 L 200.24 22.24 Q 200.24 25.64 202.44 27.88 A 7.303 7.303 0 0 0 207.754 30.119 A 9.287 9.287 0 0 0 207.88 30.12 Q 211.12 30.12 213.3 27.9 A 7.531 7.531 0 0 0 215.442 23.132 A 10.139 10.139 0 0 0 215.48 22.24 L 215.48 0.72 L 216.8 0.72 L 216.8 22.2 A 9.925 9.925 0 0 1 216.278 25.477 A 8.547 8.547 0 0 1 214.26 28.7 Q 211.72 31.28 208.08 31.28 Z M 121.28 30.72 L 136.24 0 L 151.24 30.72 L 149.84 30.72 L 144.16 19.28 L 128.12 19.28 L 122.52 30.72 L 121.28 30.72 Z M 245.04 18.72 L 245.04 30.72 L 243.72 30.72 L 243.72 18.72 L 234.6 0.72 L 236.04 0.72 L 244.48 17.32 L 252.76 0.72 L 253.96 0.72 L 245.04 18.72 Z M 0 0.72 L 1.32 0.72 L 1.32 29.56 L 10.6 29.56 L 10.6 30.72 L 0 30.72 L 0 0.72 Z M 66.28 0.72 L 67.6 0.72 L 67.6 29.56 L 76.88 29.56 L 76.88 30.72 L 66.28 30.72 L 66.28 0.72 Z M 94.68 0.72 L 96 0.72 L 96 29.56 L 105.28 29.56 L 105.28 30.72 L 94.68 30.72 L 94.68 0.72 Z M 169.44 30.72 L 169.44 0.72 L 170.72 0.72 Q 173.32 0.72 175.08 2.34 A 5.335 5.335 0 0 1 176.836 6.236 A 7.032 7.032 0 0 1 176.84 6.48 A 5.187 5.187 0 0 1 176.495 8.306 A 7.226 7.226 0 0 1 175.86 9.58 A 6.453 6.453 0 0 1 175.129 10.555 Q 174.642 11.084 174.087 11.397 A 3.516 3.516 0 0 1 173.56 11.64 Q 176.64 12.4 178.68 14.92 A 9.018 9.018 0 0 1 180.54 19.106 A 12.391 12.391 0 0 1 180.72 21.26 Q 180.72 25.08 177.8 27.9 Q 174.88 30.72 170.72 30.72 L 169.44 30.72 Z M 143.68 18.12 L 136.12 2.76 L 128.64 18.12 L 143.68 18.12 Z M 171.04 12.36 L 170.72 12.36 L 170.72 29.6 L 171.04 29.6 A 7.995 7.995 0 0 0 176.862 27.159 A 10.287 10.287 0 0 0 176.98 27.04 A 8.59 8.59 0 0 0 179.099 23.564 A 8.731 8.731 0 0 0 179.48 20.96 Q 179.48 17.44 177.001 14.901 Q 174.52 12.36 171.04 12.36 Z M 171.04 1.84 L 170.72 1.84 L 170.72 11.28 L 171.04 11.28 A 4.12 4.12 0 0 0 173.801 10.221 A 5.681 5.681 0 0 0 174.22 9.82 Q 175.6 8.36 175.6 6.46 Q 175.6 4.56 174.24 3.2 Q 172.88 1.84 171.04 1.84 Z"
      vector-effect="non-scaling-stroke" />
  </g>
</svg>