<?xml version="1.0" encoding="iso-8859-1"?>
<!-- Generator: Adobe Illustrator 18.0.0, SVG Export Plug-In . SVG Version: 6.00 Build 0)  -->
<!DOCTYPE svg PUBLIC "-//W3C//DTD SVG 1.1//EN" "http://www.w3.org/Graphics/SVG/1.1/DTD/svg11.dtd">
<svg version="1.1" id="Capa_1" xmlns="http://www.w3.org/2000/svg" xmlns:xlink="http://www.w3.org/1999/xlink" x="0px" y="0px"
         viewBox="0 0 84.335 84.335" style="enable-background:new 0 0 84.335 84.335;" xml:space="preserve">
<g>
        <path d="M71.725,53.706c-0.655-4.833-1.394-9.717-2.325-14.501c-0.891-4.575-3.014-9.755-3.586-14.536
                c0.004-0.454-0.031-0.883-0.095-1.295c-0.016-0.289-0.052-0.584-0.055-0.868c0-0.171-0.127-0.265-0.263-0.28
                c-0.164-0.395-0.365-0.785-0.665-1.169c-1.264-1.618-4.413-2.575-6.466-1.761c-0.02-0.01-0.046-0.024-0.066-0.035
                c-0.636-0.309-1.366-0.498-2.131-0.643c0.618-9.592-5.265-17.669-15.659-18.555c-10.843-0.923-17.022,8.393-16.16,18.212
                c-1.351,0.01-2.698,0.052-4.056,0.2c-0.789,0.084-2.675,0.811-3.683,1.773c-0.052,0.043-0.11,0.067-0.159,0.123
                c-5.422,6.117-3.759,16.631-4.634,24.195c-0.691,5.989-0.749,12.071-0.996,18.1c-0.192,4.672-1.369,11.135-0.077,15.835
                c0.743,2.697,1.909,3.164,4.339,3.669c4.454,0.927,10.72,0.573,15.222,0.938c5.542,0.454,11.037,0.303,16.547,0.735
                c0.96,0.075,1.917,0.068,2.875,0.02c0.046,0.007,0.095,0.011,0.14,0.019c3.566,0.612,7.273,0.618,10.822-0.073
                c1.897,0.073,3.205-0.539,4.125-1.576c1.505-0.391,2.94-1.35,3.757-2.652c1.218-0.429,2.332-0.907,3.525-1.534
                c0.281-0.146,0.479-0.337,0.624-0.543c0.932-0.169,1.766-0.833,1.646-1.908C73.458,68.303,72.708,60.965,71.725,53.706z
                 M38.483,3.394c3.875-0.193,9.535,2.788,11.728,5.978c1.935,2.817,1.544,5.851,1.689,8.979c-0.461,0.013-0.921,0.034-1.379,0.059
                c-0.028-1.202-0.106-2.78-0.2-3.187c-0.44-1.885-1.887-3.635-3.016-5.152c-2.04-2.745-4.684-4.807-8.228-4.538
                c-3.236,0.242-6.373,2.128-8.496,4.495c-1.959,2.179-2.063,5.536-2.089,8.44c-0.347-0.109-0.727-0.175-1.16-0.182
                c-0.099-0.002-0.196,0-0.295-0.002C28.36,11.225,29.02,3.862,38.483,3.394z M46.629,18.633c-0.32,0.012-0.646,0.028-0.944,0.028
                c-4.802,0.011-9.544-0.163-14.256-0.049c0.212-0.617,0.345-1.22,0.372-2.123c0.105-3.77,2.416-5.708,5.748-6.867
                c3.233-1.126,5.221,0.798,6.972,3.275C45.869,14.803,46.328,16.599,46.629,18.633z M61.237,71.716
                c0.67,0.048,1.521,0.185,2.275,0.109c-0.049,0.645-0.108,1.277-0.191,1.886c-0.925-0.073-1.923,0.059-2.774,0.075
                c-0.998,0.02-0.998,1.53,0,1.551c0.762,0.014,1.638,0.119,2.479,0.09c-0.093,0.445-0.19,0.884-0.309,1.297
                c-1.534,0.128-3.049,0.403-4.583,0.478c-1.037,0.051-1.046,1.596,0,1.616c1.292,0.024,2.58-0.086,3.87-0.141
                c-0.036,0.07-0.071,0.144-0.113,0.211c-0.204,0.402-0.416,0.794-0.665,1.136c-0.311-0.112-0.647-0.178-1.031-0.123
                c-5.569,0.799-11.052,0.479-16.55,0.766c-13.499-0.584-28.673-1.952-28.775-4.554c-0.33-8.252,1.212-16.871,1.33-25.186
                c0.127-9.272,0.218-19.896,2.283-28.971c0.521-0.257,1.038-0.503,1.604-0.69c1.563,0.086,3.127,0.172,4.692,0.274
                c0.204,0.706,1.186,0.722,1.486,0.098c5.407,0.36,10.811,0.757,16.224,1.043c6.041,0.321,12.685-0.364,18.783,0.116
                c0.107,0.056,0.216,0.113,0.306,0.189c0.064,1.317,0.114,2.637,0.171,3.953c-0.63,0.009-1.26,0.019-1.892,0.026
                c-0.917,0.013-0.917,1.41,0,1.423l1.957,0.027c0.039,0.911,0.081,1.824,0.119,2.734c-0.862,0.124-1.725,0.406-2.273,0.637
                c-0.681,0.285-0.728,1.162,0,1.434c0.827,0.309,1.551,0.267,2.37,0.182c0.042,0.935,0.09,1.873,0.122,2.81
                c-0.898-0.104-1.804-0.155-2.638-0.208c-1.702-0.106-1.715,2.718,0,2.65c0.875-0.035,1.805,0.059,2.723,0.088
                c0.026,0.865,0.071,1.729,0.089,2.594c-0.726,0.009-1.453,0.052-2.124,0.045c-0.999-0.008-0.999,1.561,0,1.552
                c0.675-0.006,1.408,0.037,2.14,0.045c0.02,1.395,0.043,2.79,0.037,4.189c-0.78,0.024-1.548-0.03-2.291-0.337
                c-0.912-0.379-1.56,1.177-0.672,1.595c0.915,0.431,1.848,0.572,2.854,0.61c0.036,0.002,0.079,0.002,0.117,0.004
                c-0.003,1.219,0.112,2.816,0.278,4.667c-0.255-0.007-0.514-0.007-0.777-0.011c-1.253-0.015-2.503-0.03-3.756-0.044
                c-1.625-0.021-1.625,2.54,0,2.521c1.252-0.014,2.503-0.03,3.756-0.045c0.343-0.004,0.673-0.008,0.999-0.021
                c0.132,1.394,0.271,2.863,0.392,4.385c-1.467-0.137-3.088,0.185-4.458,0.283c-1.331,0.095-1.331,1.974,0,2.068
                c1.428,0.103,3.129,0.45,4.645,0.269c0.038,0.618,0.061,1.239,0.087,1.858c-0.678,0.046-1.277,0.41-1.938,0.543
                c-1.344,0.27-0.947,2.224,0.31,2.284c0.589,0.032,1.122-0.104,1.696-0.171c0.004,0.481,0.02,0.968,0.013,1.44
                c-0.279,0.024-0.559,0.075-0.847,0.093c-0.517,0.03-1.034-0.032-1.551-0.025C59.555,69.147,59.588,71.603,61.237,71.716z
                 M70.173,74.921c-1.163,0.601-2.323,1.026-3.517,1.427c0.247-3.138-0.066-6.686-0.065-9.414c0.002-6.296,0.368-13.296,0.322-20.308
                c1.332,9.39,2.036,18.875,3.276,28.291C70.183,74.919,70.177,74.919,70.173,74.921z"/>
        <path d="M30.979,28.165c-0.194-1.101-0.911-2.166-1.889-2.705c-0.773-0.426-1.668-0.543-2.277-0.066
                c-1.704-0.197-3.642,1.209-3.88,2.963c-0.329,2.42,1.453,4.842,3.993,4.803C29.423,33.12,31.403,30.575,30.979,28.165z
                 M26.862,29.855c-0.447-0.062-0.814-0.646-0.727-1.06c0.042-0.196,0.651-0.398,0.823-0.501c0.218-0.133,0.404-0.268,0.588-0.406
                c0.208,0.307,0.365,0.636,0.372,0.923C27.93,29.261,27.339,29.92,26.862,29.855z"/>
        <path d="M54.492,26.624c-0.737-0.91-1.787-1.081-2.908-1.049c-0.225,0.007-0.397,0.079-0.549,0.174
                c-1.527-0.342-2.987,1.066-3.448,2.592c-0.638,2.102,1.222,4.279,3.316,4.348c1.033,0.031,2.008-0.301,2.865-0.866
                c0.679-0.449,1.87-1.503,1.793-2.423C55.479,28.382,55.139,27.426,54.492,26.624z M51.148,29.99
                c-0.647-0.003-0.856-0.771-0.856-1.284c0-0.462,0.451-0.795,0.914-1.086c0.112,0.045,0.233,0.084,0.377,0.089
                c0.559,0.022,0.947,0.033,1.252,0.557c0.086,0.158,0.153,0.326,0.198,0.501c0.049,0.154,0.042,0.275,0.042,0.328
                C52.652,29.671,51.828,29.994,51.148,29.99z"/>
</g>
<g>
</g>
<g>
</g>
<g>
</g>
<g>
</g>
<g>
</g>
<g>
</g>
<g>
</g>
<g>
</g>
<g>
</g>
<g>
</g>
<g>
</g>
<g>
</g>
<g>
</g>
<g>
</g>
<g>
</g>
</svg>